<?xml version="1.0" encoding="UTF-8" standalone="no"?>
<svg
   xmlns:dc="http://purl.org/dc/elements/1.1/"
   xmlns:cc="http://creativecommons.org/ns#"
   xmlns:rdf="http://www.w3.org/1999/02/22-rdf-syntax-ns#"
   xmlns:svg="http://www.w3.org/2000/svg"
   xmlns="http://www.w3.org/2000/svg"
   xmlns:sodipodi="http://sodipodi.sourceforge.net/DTD/sodipodi-0.dtd"
   xmlns:inkscape="http://www.inkscape.org/namespaces/inkscape"
   version="1.1"
   width="853.27234"
   height="945.83771"
   xlink="http://www.w3.org/1999/xlink"
   style="overflow:hidden"
   id="svg2"
   inkscape:version="0.91 r13725"
   sodipodi:docname="humpty2.svg">
  <metadata
     id="metadata195">
    <rdf:RDF>
      <cc:Work
         rdf:about="">
        <dc:format>image/svg+xml</dc:format>
        <dc:type
           rdf:resource="http://purl.org/dc/dcmitype/StillImage" />
        <dc:title></dc:title>
      </cc:Work>
    </rdf:RDF>
  </metadata>
  <sodipodi:namedview
     pagecolor="#ffffff"
     bordercolor="#666666"
     borderopacity="1"
     objecttolerance="10"
     gridtolerance="10"
     guidetolerance="10"
     inkscape:pageopacity="0"
     inkscape:pageshadow="2"
     inkscape:window-width="1383"
     inkscape:window-height="855"
     id="namedview193"
     showgrid="false"
     showborder="true"
     inkscape:showpageshadow="true"
     fit-margin-top="0"
     fit-margin-left="0"
     fit-margin-right="0"
     fit-margin-bottom="0"
     inkscape:zoom="0.55021746"
     inkscape:cx="426.63417"
     inkscape:cy="547.37029"
     inkscape:window-x="56"
     inkscape:window-y="0"
     inkscape:window-maximized="0"
     inkscape:current-layer="svg2" />
  <g
     id="svga-group-wrapper"
     transform="matrix(4,0,0,4,26.634173,-1.5325948)">
    <g
       id="svga-group-backs-single" />
    <g
       id="svga-group-subwrapper">
      <g
         id="svga-group-hair-back"
         transform="matrix(0.95999969,0,0,0.99979969,4.000031,0.020031)">
        <path
           id="SvgjsPath20811"
           d="m 100.5,100.5 -1,0 0,-1 1,0 0,1 z"
           stroke-width="none"
           inkscape:connector-curvature="0"
           style="opacity:1;fill:#aa5920" />
      </g>
      <g
         id="svga-group-humanbody-single">
        <path
           id="SvgjsPath15408"
           d="m 195.417,199.778 c -2.196,-4.746 -8.195,-11.779 -14.86,-13.722 -8.239,-2.403 -26.837,-5.308 -33.733,-6.923 -5.528,-1.296 -16.662,-11.294 -20.564,-14.65 -0.7,-0.6 -1.273,-1.839 -1.287,-2.76 -0.139,-10.864 4.195,-39.724 4.195,-39.724 l -29.168,0 -29.167,0 c 0,0 4.334,28.859 4.193,39.724 -0.011,0.921 -0.587,2.16 -1.285,2.76 -3.902,3.356 -15.036,13.354 -20.564,14.65 -6.897,1.615 -25.495,4.619 -33.733,7.022 -6.667,1.942 -12.664,8.876 -14.86,13.622 -3.708,8.008 -4.584,22.5 -4.584,35 l 100,0 100,0 c 0,-12.499 -0.877,-26.991 -4.583,-34.999 z"
           stroke-width="none"
           inkscape:connector-curvature="0"
           style="opacity:1;fill:#ecc4b8;stroke:none" />
        <path
           id="SvgjsPath15409"
           d="m 159.156,184.058 c 24.342,3.542 34.586,8.708 37.794,50.721 l 3.05,0 c 0,-12.5 -0.877,-26.992 -4.583,-35 -2.196,-4.746 -8.195,-11.779 -14.86,-13.722 -8.239,-2.403 -26.837,-5.308 -33.733,-6.923 -5.528,-1.296 -18.242,-12.069 -21.643,-16.35 3.36,4.704 12.791,15.605 21.054,18.46 3.953,1.366 7.245,1.988 12.921,2.814 z m -105.39,-2.814 c 8.263,-2.854 17.693,-13.756 21.054,-18.46 -3.4,4.28 -16.114,15.054 -21.643,16.35 -6.896,1.615 -25.494,4.619 -33.733,7.022 -6.665,1.942 -12.664,8.876 -14.86,13.622 -3.706,8.008 -4.583,22.5 -4.583,35 l 3.05,0 c 3.188,-41.744 13.475,-47.183 37.794,-50.721 5.675,-0.825 8.968,-1.447 12.921,-2.813 z"
           stroke-width="none"
           inkscape:connector-curvature="0"
           style="opacity:1;fill:#fbe4dd;stroke:none" />
        <path
           id="SvgjsPath15410"
           d="m 95.646,197.62 c 0,0 -5.074,-1.609 -7.083,-2.379 -10.449,-4.009 -44.395,-6.607 -44.395,-6.607 0,0 35.754,1.419 43.644,2.779 -0.458,-4.767 -3.017,-20.004 -3.017,-20.004 0,0 5.149,16.815 6.409,21.057 0.674,2.268 4.442,5.154 4.442,5.154 z m 10.799,-1.342 c -0.089,0.073 -0.191,0.168 -0.302,0.268 0.113,-0.085 0.215,-0.174 0.302,-0.268 z m -10.799,1.342 c 0,0 2.893,2.992 4.347,3.03 1.91,0.051 4.828,-2.899 6.151,-4.104 -1.265,0.957 -4.159,1.391 -5.31,1.436 -1.33,0.051 -5.188,-0.362 -5.188,-0.362 z m 21.018,-7.519 c -1.545,0.248 -4.386,0.789 -4.386,0.789 L 114.565,176 c -0.646,3.071 -4.474,16.211 -8.12,20.278 1.91,-1.616 6.158,-2.391 8.324,-2.704 10.236,-1.484 10.232,-1.483 41.062,-4.94 0,0 -29.071,-0.155 -39.167,1.467 z"
           stroke-width="none"
           inkscape:connector-curvature="0"
           style="opacity:1;fill:#dda696;stroke:none" />
        <path
           id="SvgjsPath15411"
           d="m 195.417,199.778 c -2.196,-4.746 -8.195,-11.779 -14.86,-13.722 -8.239,-2.403 -26.837,-5.308 -33.733,-6.923 -5.528,-1.296 -16.662,-11.294 -20.564,-14.65 -0.7,-0.6 -1.273,-1.839 -1.287,-2.76 -0.139,-10.864 4.195,-39.724 4.195,-39.724 l -29.168,0 -29.167,0 c 0,0 4.334,28.859 4.193,39.724 -0.011,0.921 -0.587,2.16 -1.285,2.76 -3.902,3.356 -15.036,13.354 -20.564,14.65 -6.897,1.615 -25.495,4.619 -33.733,7.022 -6.667,1.942 -12.664,8.876 -14.86,13.622 -3.708,8.008 -4.584,22.5 -4.584,35 l 100,0 100,0 c 0,-12.499 -0.877,-26.991 -4.583,-34.999 z"
           inkscape:connector-curvature="0"
           style="opacity:1;fill:none;stroke:#be725b;stroke-width:1.5" />
      </g>
      <g
         id="svga-group-chinshadow-single">
        <path
           id="SvgjsPath20693"
           d="m 124.272,162.248 c -0.028,-0.175 -0.048,-0.349 -0.051,-0.515 -0.094,-7.38 1.819,-22.721 3.098,-32.078 -15.699,-1.984 -38.937,-1.975 -54.637,0.016 1.279,9.359 3.19,24.687 3.094,32.062 -10e-4,0.119 -0.014,0.243 -0.03,0.367 3.825,3.586 7.667,6.528 11.055,8.151 5.312,2.546 21.035,2.427 26.401,0 3.411,-1.541 7.254,-4.439 11.07,-8.003 z"
           inkscape:connector-curvature="0"
           style="opacity:1;fill:url(#SvgjsLinearGradient20694)" />
      </g>
      <g
         id="svga-group-clothes-single">
        <path
           id="SvgjsPath20817"
           d="m 42.77,235.757 1.323,-60.852 c 0,0 10.194,-2.487 16.635,-6.313 17.496,21.953 69.451,17.333 78.336,-0.62 1.489,0.525 2.721,1.197 4.262,1.713 5,3.386 9.213,4.494 9.213,4.494 l 0.935,61.685 C 139.188,236.052 42.77,235.757 42.77,235.757 Z"
           stroke-width="none"
           inkscape:connector-curvature="0"
           style="opacity:1;fill:#f5f4f5" />
        <path
           id="SvgjsPath20818"
           d="m 154.014,177.705 c -4.236,-0.719 -7.611,-1.697 -9.452,-3.544 -5.343,10.025 -26.763,16.378 -33.855,17.309 20.554,-6.276 29.188,-10.813 32.598,-21.583 1.99,2.383 6.522,3.549 12.313,4.538 l -1.604,3.28 z M 52.67,174.381 c 1.454,-0.312 2.18,-1.234 3.623,-1.593 l -1.528,-1.867 c -3.114,2.234 -8.971,3.305 -15.9,4.424 l 0.188,3.738 c 3.956,-0.79 7.817,-1.788 11.429,-3.323 7.483,8.485 19.168,12.659 31.06,14.387 C 66.624,186.562 58.07,180.511 52.67,174.381 Z"
           stroke-width="none"
           inkscape:connector-curvature="0"
           style="opacity:1;fill:#ffffff" />
        <path
           id="SvgjsPath20819"
           d="m 137.861,170.055 c -5.929,11.361 -50.74,24.595 -76.009,0.866 -1.571,0.615 -6.271,2.085 -6.271,2.085 18.406,23.08 72.345,23.227 86.702,-0.112 -0.062,-0.024 -2.962,-2.157 -4.422,-2.839 z"
           stroke-width="none"
           inkscape:connector-curvature="0"
           style="opacity:1;fill:#dfdde2" />
        <path
           id="SvgjsPath20820"
           d="m 139.008,167.841 c -10.087,18.575 -62.578,21.204 -78.239,0.625 -5.72,1.556 -11.219,4.876 -16.756,5.707 l -1.243,61.584 110.703,0.107 -0.855,-62.386 c -3.369,-0.707 -6.501,-2.737 -9.254,-3.894 -1.522,-0.639 -2.814,-1.214 -4.356,-1.743 z m -78.618,1.246 c 13.903,23.086 68.817,18.455 79.419,0.099 1.286,0.499 1.615,0.696 3.106,1.183 -10.982,21.208 -65.306,27.967 -87.525,1.147 0.156,-0.04 3.433,-1.887 5,-2.429 z m -6.103,3.331 c 17.963,27.046 77.26,22.856 89.583,-1.287 1.771,1.391 4.53,2.989 7.936,3.735 l 1.66,59.08 -110.377,0.016 1.904,-58.299 c 2.784,-1.399 7.254,-2.431 9.294,-3.245 z"
           stroke-width="none"
           inkscape:connector-curvature="0"
           style="opacity:1;fill:#b8b6c9" />
        <path
           id="SvgjsPath20821"
           d="m -4.529,235.566 c -2.574,-13.852 -2.292,-47.592 9.013,-47.521 13.136,-5.311 29.269,-11.404 42.802,-15.311 6.908,-7.246 13.436,-14.137 26.188,-21.314 0.389,2.599 1.874,8.541 0.011,11.773 -1.355,2.352 -5.783,5.576 -9.554,8.368 -2.029,2.72 -3.927,5.374 -6.599,9.089 5.168,22.301 9.601,33.78 10.097,53.123 0,0 -1.452,0.689 64.471,0.397 2.215,-22.339 4.993,-33.561 10.379,-54.098 0,0 -4.308,-5.014 -7.207,-8.87 -2.054,-1.997 -8.36,-7.532 -8.84,-8.651 -1.175,-2.741 -0.548,-6.188 0.11,-11.367 10.793,4.873 17,12.021 26.082,21.303 7.729,2.119 30.86,9.967 42.445,15.216 3.965,-0.11 6.203,1.999 7.872,5.466 5.405,11.195 4.126,27.297 2.18,42.789 -19.091,0.031 -155.034,2.212 -209.45,-0.392 z"
           stroke-width="none"
           inkscape:connector-curvature="0"
           style="opacity:1;fill:#3f82a4" />
        <path
           id="SvgjsPath20822"
           d="m 73.875,154.081 c 0.16,1.07 0.304,2.085 0.411,3.041 -0.218,0.266 -17.212,23.353 -17.336,23.525 4.176,-9.499 10.15,-19.342 16.925,-26.566 z m 52.178,0 c -0.159,1.07 -0.184,2.085 -0.291,3.041 0.218,0.266 16.931,22.469 17.054,22.642 -4.425,-8.85 -9.988,-18.459 -16.763,-25.683 z m 38.955,31.073 c -4.28,6.231 -5.194,8.382 -9.879,14.557 1.071,0 2.799,0.166 3.87,0.166 3.664,-6.285 3.671,-9.484 6.009,-14.723 z m 4.386,45.225 c 3.793,-8.9 6.934,-16.711 10.739,-25.624 l -1.247,-2.014 c -3.169,9.155 -6.532,18.458 -9.492,27.638 z M 41.048,199.877 c 1.071,0 2.799,-0.166 3.871,-0.166 -4.685,-6.175 -5.599,-6.561 -9.878,-12.792 2.336,5.239 2.343,6.673 6.007,12.958 z m -19.887,2.864 -1.247,2.014 c 3.806,8.913 4.765,16.724 8.559,25.624 -2.961,-9.18 -4.143,-18.483 -7.312,-27.638 z"
           stroke-width="none"
           inkscape:connector-curvature="0"
           style="opacity:1;fill:#2a7195" />
        <path
           id="SvgjsPath20823"
           d="m 65.638,169.283 c 1.181,-1.646 5.237,-7.272 8.601,-12.561 0.988,5.457 -0.826,8.694 -8.601,12.561 z M 125.74,156.36 c 2.553,4.396 5.562,8.772 8.664,12.803 -8.404,-3.827 -8.969,-7.74 -8.664,-12.803 z"
           stroke-width="none"
           inkscape:connector-curvature="0"
           style="opacity:1;fill:#196185" />
        <path
           id="SvgjsPath20824"
           d="m 126.318,151.359 c 0.008,-0.061 0.017,-0.118 0.023,-0.174 18.093,9.999 28.576,25.02 40.747,36.217 -0.448,0.721 -1.228,1.193 -1.687,1.905 -12.745,-9.698 -18.802,-24.361 -39.083,-37.948 z m -54.582,0.663 c -15.034,8.213 -36.242,33.357 -38.318,35.269 0.448,0.724 0.691,0.577 1.15,1.288 12.746,-9.697 16.225,-19.296 37.168,-36.557 z m 123.133,35.682 c -1,-0.799 -24.646,-10.039 -42.59,-14.969 33.698,16.299 45.587,18.545 51.471,24.321 -0.383,-0.999 -1.164,-9.567 -8.881,-9.352 z M 47.458,172.555 c -13.524,3.914 -30.839,10.098 -42.975,15.491 -5.364,0.106 -9.208,7.93 -10.031,16.084 7.462,-16.813 3.775,-5.51 53.006,-31.575 z"
           stroke-width="none"
           inkscape:connector-curvature="0"
           style="opacity:1;fill:#5794b3" />
        <path
           id="SvgjsPath20825"
           d="m 206.6,210.062 c -0.34,-8.635 -3.055,-23.103 -11.691,-22.46 -0.714,-0.61 -20.822,-9.767 -42.285,-15.611 -7.353,-7.455 -16.515,-17.598 -26.371,-20.957 -0.711,6.428 -1.477,10.622 0.216,12.714 2.241,2.439 4.93,4.879 7.568,6.522 4.616,6.136 8.139,9.778 8.139,9.778 -5.43,20.703 -8.815,31.314 -10.973,53.688 l -62.405,0 c -2.157,-22.373 -5.543,-32.984 -10.973,-53.688 0,0 3.522,-3.643 8.139,-9.778 2.639,-1.644 5.327,-4.083 7.568,-6.522 1.692,-2.092 0.927,-6.286 0.216,-12.714 -9.856,3.359 -19.019,13.502 -26.371,20.957 C 25.914,177.836 5.806,186.992 5.092,187.602 -3.545,186.959 -6.26,201.427 -6.599,210.062 -7.01,220.549 -5.164,235 -5.014,236 l 210.029,0 c 0.15,-1.001 1.996,-15.451 1.585,-25.938 z M 72.984,163.194 c -2.258,2.233 -3.658,3.181 -6.473,5.282 4.829,-6.271 4.341,-5.433 7.708,-11.229 0.151,2.492 -0.786,5.504 -1.235,5.947 z m -76.156,70.834 c -1.082,-12.844 -2.916,-24.41 0.43,-36.992 1.281,-4.827 2.484,-8.095 7.455,-8.509 1.067,5.538 8.132,28.724 14.298,44.533 -6.226,-24.192 -5.311,-18.81 -8.219,-28.452 -0.964,-3.235 -1.854,-6.486 -2.979,-9.672 -0.783,-2.214 -1.65,-4.387 -2.262,-6.653 l 40.433,-14.865 c -0.279,0.283 -12.895,13.434 -13.199,13.804 1.847,3.021 7.816,7.222 10.845,11.758 -12.436,1.174 -18.508,3.173 -23,3.84 0.331,0.919 9.061,25.353 9.976,27.656 -1.479,-7.917 -4.816,-20.297 -8.637,-27.211 1.41,-0.179 18.077,-2.492 23.393,-3.477 -1.476,-2.854 -8.043,-8.437 -11.559,-12.619 20.646,-18.162 25.422,-27.402 39.593,-35.454 0.15,1.509 0.443,3.011 0.55,4.519 -15.795,23.533 -17.649,23.567 -17.649,23.567 4.585,17.81 10.532,35.824 10.532,54.073 l -70.001,0.154 z m 130.188,-70.834 c -0.448,-0.443 -1.386,-3.455 -1.235,-5.947 3.367,5.797 2.879,4.958 7.708,11.229 -2.815,-2.101 -4.216,-3.048 -6.473,-5.282 z m 76.156,70.834 -70,-0.154 c 0,-18.249 5.947,-36.264 10.532,-54.073 0,0 -1.854,-0.034 -17.649,-23.567 0.106,-1.508 0.399,-3.01 0.55,-4.519 14.171,8.052 18.946,17.292 39.593,35.454 -3.516,4.183 -10.083,9.766 -11.559,12.619 5.315,0.984 21.982,3.298 23.393,3.477 -3.82,6.914 -7.157,19.294 -8.637,27.211 0.915,-2.304 9.645,-26.737 9.976,-27.656 -4.492,-0.667 -10.564,-2.666 -23,-3.84 3.028,-4.536 8.998,-8.736 10.845,-11.758 -0.305,-0.37 -12.92,-13.521 -13.199,-13.804 0.001,0 40.433,14.865 40.433,14.865 -0.611,2.267 -1.479,4.439 -2.262,6.653 -1.125,3.186 -2.015,6.437 -2.979,9.672 -2.908,9.643 -1.993,4.26 -8.219,28.452 6.166,-15.81 13.23,-38.995 14.298,-44.533 4.971,0.414 6.174,3.682 7.455,8.509 3.345,12.582 1.511,24.149 0.429,36.992 z"
           stroke-width="none"
           inkscape:connector-curvature="0"
           style="opacity:1;fill:#0a5276" />
      </g>
      <g
         id="svga-group-head">
        <g
           id="svga-group-ears-left"
           transform="translate(3.0000001,-1.0000001)">
          <path
             id="SvgjsPath20737"
             d="m 47.69,83.08 c -1.588,-2.376 -8.025,-7.833 -11.703,-6.994 -4.355,0.993 -5.708,4.372 -5.603,6.475 0.606,12.025 4.426,12.016 6.71,16.64 1.709,3.459 3.126,5.044 4.172,11.958 0.598,3.953 4.427,6.984 7.217,6.835 3.908,-0.21 6.994,-3.716 8.291,-7.173 2.689,-7.178 -4.951,-21.556 -9.084,-27.741 z"
             inkscape:connector-curvature="0"
             style="opacity:1;fill:#ecc4b8;stroke:#be725b;stroke-width:1.5" />
          <path
             id="SvgjsPath20738"
             d="m 43.274,100.336 c -0.15,-0.554 -0.062,-1.507 0.024,-2.43 0.077,-0.84 1.438,-3.888 1.348,-4.44 -0.344,-2.068 -1.931,-5.94 -2.949,-8.031 -1.169,-2.403 -3.604,-5.409 -5.79,-6.078 -0.904,-0.278 -3.479,0.04 -3.781,0.639 -1.131,2.241 -0.615,4.411 1.1,10.21 0.85,2.873 3.915,6.207 3.998,6.54 1.067,4.343 5.099,11.284 6.488,12.839 0.256,0.288 0.519,0.452 0.579,0.376 0.059,-0.077 -0.104,-0.368 -0.361,-0.656 -1.372,-1.547 -5.367,-8.471 -6.396,-12.662 -1.092,-4.446 2.313,-11.346 2.93,-12.8 0.379,0.642 0.703,1.261 0.954,1.777 0.198,0.406 0.417,0.881 0.645,1.396 -0.367,0.76 -4.245,6.367 -3.026,10.606 0.451,1.563 2.054,4.592 3.432,6.187 0.483,0.559 0.893,0.717 1.19,1.234 0.341,0.599 0.732,1.279 1.792,1.726 0.215,0.091 0.408,0.121 0.577,0.111 0.293,-0.02 0.51,-0.161 0.667,-0.326 0.029,0.271 0.044,0.617 0.051,0.94 0.007,0.413 0.073,0.752 0.162,0.755 0.089,0.003 0.168,-0.333 0.161,-0.746 -0.009,-0.509 -0.04,-1.14 -0.132,-1.437 -0.273,-0.873 -1.028,-1.832 -1.829,-2.844 -0.789,-0.996 -1.603,-2.029 -1.834,-2.886 z M 36.96,94.639 C 34.613,87.86 35.442,80.971 35.857,79.996 c 1.345,0 3.778,2.495 4.397,3.498 -0.38,0.857 -3.417,6.496 -3.294,11.145 z m 8.599,11.775 c -0.961,-0.403 -1.303,-1.001 -1.635,-1.58 -0.299,-0.524 -1.018,-1.022 -1.346,-1.378 -0.191,-0.209 -0.531,-0.767 -0.715,-0.892 -1.762,-7.606 1.345,-10.382 1.967,-10.964 0.231,0.729 0.411,1.399 0.5,1.939 0.082,0.496 -1.28,3.552 -1.352,4.327 -0.089,0.961 -0.182,1.954 -0.012,2.583 0.253,0.938 1.093,2 1.904,3.028 0.72,0.912 1.459,1.852 1.732,2.639 -0.093,0.166 -0.398,0.57 -1.043,0.298 z"
             stroke-width="none"
             inkscape:connector-curvature="0"
             style="opacity:1;fill:#be725b" />
        </g>
        <g
           id="svga-group-ears-right"
           transform="translate(-3.0000001,-1.0000001)">
          <path
             id="SvgjsPath20739"
             d="m 152.049,83.08 c 1.588,-2.376 8.025,-7.833 11.701,-6.994 4.357,0.993 5.709,4.372 5.604,6.475 -0.605,12.025 -4.426,12.016 -6.709,16.64 -1.711,3.459 -3.127,5.044 -4.174,11.958 -0.598,3.953 -4.428,6.984 -7.217,6.835 -3.908,-0.21 -6.994,-3.716 -8.291,-7.173 -2.688,-7.178 4.953,-21.556 9.086,-27.741 z"
             inkscape:connector-curvature="0"
             style="opacity:1;fill:#ecc4b8;stroke:#be725b;stroke-width:1.5" />
          <path
             id="SvgjsPath20740"
             d="m 154.633,103.222 c -0.801,1.013 -1.557,1.972 -1.83,2.844 -0.092,0.297 -0.123,0.928 -0.131,1.437 -0.008,0.413 0.072,0.749 0.16,0.746 0.09,-0.003 0.154,-0.342 0.162,-0.755 0.008,-0.323 0.021,-0.67 0.051,-0.94 0.156,0.165 0.373,0.307 0.666,0.326 0.17,0.01 0.361,-0.021 0.578,-0.111 1.061,-0.446 1.449,-1.126 1.791,-1.726 0.297,-0.517 0.709,-0.675 1.191,-1.234 1.377,-1.594 2.98,-4.624 3.432,-6.187 1.219,-4.239 -2.66,-9.846 -3.027,-10.606 0.229,-0.515 0.447,-0.989 0.645,-1.396 0.252,-0.516 0.576,-1.136 0.955,-1.777 0.617,1.454 4.021,8.354 2.93,12.8 -1.029,4.191 -5.025,11.115 -6.396,12.662 -0.256,0.288 -0.42,0.579 -0.361,0.656 0.061,0.076 0.322,-0.088 0.578,-0.376 1.391,-1.556 5.422,-8.496 6.49,-12.839 0.082,-0.333 3.146,-3.667 3.996,-6.54 1.715,-5.799 2.232,-7.969 1.102,-10.21 -0.303,-0.599 -2.877,-0.917 -3.783,-0.639 -2.186,0.669 -4.619,3.675 -5.789,6.078 -1.018,2.09 -2.605,5.963 -2.949,8.031 -0.09,0.552 1.271,3.6 1.348,4.44 0.086,0.922 0.176,1.875 0.025,2.43 -0.235,0.857 -1.047,1.89 -1.834,2.886 z m 4.851,-19.728 c 0.619,-1.003 3.053,-3.498 4.396,-3.498 0.416,0.975 1.244,7.864 -1.104,14.643 0.126,-4.649 -2.913,-10.288 -3.292,-11.145 z m -6.347,22.622 c 0.273,-0.788 1.012,-1.728 1.732,-2.639 0.811,-1.028 1.65,-2.09 1.904,-3.028 0.168,-0.629 0.076,-1.623 -0.014,-2.583 -0.07,-0.775 -1.434,-3.831 -1.352,-4.327 0.09,-0.54 0.27,-1.21 0.5,-1.939 0.623,0.582 3.729,3.358 1.967,10.964 -0.184,0.125 -0.523,0.683 -0.715,0.892 -0.328,0.356 -1.047,0.854 -1.346,1.378 -0.332,0.579 -0.674,1.177 -1.635,1.58 -0.645,0.272 -0.948,-0.132 -1.041,-0.298 z"
             stroke-width="none"
             inkscape:connector-curvature="0"
             style="opacity:1;fill:#be725b" />
        </g>
        <g
           id="svga-group-faceshape-wrap"
           transform="matrix(0.95999969,0,0,0.99979969,4.0001311,0.01629862)">
          <g
             id="svga-group-faceshape-single">
            <path
               id="SvgjsPath20690"
               d="m 144.004,126.997 c -5.003,10.225 -20.047,28.437 -30.801,33.266 -5.366,2.412 -21.089,2.53 -26.401,0 C 76.156,155.196 61.037,137.206 56.001,126.997 50.388,115.623 41.15,78.444 41.138,78.39 c -1.3,-4.988 -1.996,-10.225 -2.004,-15.623 -0.052,-34 27.154,-61.598 60.772,-61.65 33.621,-0.053 60.913,27.457 60.963,61.456 0.009,5.4 -0.669,10.638 -1.952,15.631 -0.016,0.052 -9.317,37.355 -14.913,48.793 z"
               stroke-width="none"
               inkscape:connector-curvature="0"
               style="opacity:1;fill:#ecc4b8" />
            <path
               id="SvgjsPath20691"
               d="m 110.152,1.982 c 26.994,6.338 47.097,30.814 47.052,60.039 -0.009,5.399 -0.704,10.635 -2.004,15.624 -0.012,0.054 -8.61,37.245 -14.13,48.608 -4.859,10.004 -19.7,27.468 -30.067,32.521 -2.163,1.055 -8.694,1.555 -11.001,1.555 -2.307,0 -8.837,-0.5 -11,-1.555 C 78.635,153.721 63.793,136.257 58.935,126.253 53.414,114.89 44.816,77.699 44.805,77.645 43.505,72.657 42.809,67.42 42.801,62.021 42.756,32.796 62.857,8.32 89.853,1.982 61.03,6.877 39.087,32.232 39.134,62.767 c 0.008,5.398 0.704,10.635 2.004,15.623 0.012,0.054 9.232,37.241 14.863,48.607 5.052,10.199 20.207,28.085 30.801,33.266 2.658,1.301 9.305,1.855 12.954,1.853 3.646,0.003 10.791,-0.552 13.447,-1.853 10.594,-5.182 25.748,-23.066 30.801,-33.266 5.631,-11.366 14.852,-48.553 14.862,-48.607 1.3,-4.988 1.996,-10.225 2.004,-15.623 0.048,-30.535 -21.895,-55.89 -50.718,-60.785 z"
               stroke-width="none"
               inkscape:connector-curvature="0"
               style="opacity:1;fill:#e4b5a7" />
            <path
               id="SvgjsPath20692"
               d="m 144.004,126.997 c -5.003,10.225 -20.047,28.437 -30.801,33.266 -5.366,2.412 -21.089,2.53 -26.401,0 C 76.156,155.196 61.037,137.206 56.001,126.997 50.388,115.623 41.15,78.444 41.138,78.39 c -1.3,-4.988 -1.996,-10.225 -2.004,-15.623 -0.052,-34 27.154,-61.598 60.772,-61.65 33.621,-0.053 60.913,27.457 60.963,61.456 0.009,5.4 -0.669,10.638 -1.952,15.631 -0.016,0.052 -9.317,37.355 -14.913,48.793 z"
               inkscape:connector-curvature="0"
               style="opacity:1;fill:none;stroke:#be725b;stroke-width:1.5" />
          </g>
        </g>
        <g
           id="svga-group-mouth-single"
           transform="translate(0,2.0000003)">
          <path
             id="SvgjsPath20697"
             d="m 100.34,141.925 c -1.526,0 -2.998,-0.193 -3.9,-0.547 -0.257,-0.102 -0.384,-0.392 -0.283,-0.648 0.101,-0.257 0.39,-0.383 0.648,-0.283 1.664,0.653 5.855,0.676 7.704,-0.193 0.251,-0.117 0.548,-0.01 0.665,0.239 0.118,0.25 0.011,0.548 -0.239,0.665 -1.12,0.526 -2.891,0.767 -4.595,0.767 z m 14.685,-8.481 c 0.398,-0.171 0.584,-0.632 0.413,-1.031 -0.171,-0.399 -0.635,-0.583 -1.031,-0.413 -11.666,4.992 -28.742,0.338 -28.912,0.292 -0.417,-0.116 -0.852,0.127 -0.968,0.546 -0.116,0.418 0.128,0.851 0.546,0.968 0.463,0.128 7.692,2.1 16.034,2.1 4.62,-0.001 9.578,-0.605 13.918,-2.462 z"
             stroke-width="none"
             inkscape:connector-curvature="0"
             style="opacity:1;fill:#be725b" />
        </g>
        <g
           id="svga-group-eyes-left"
           transform="matrix(0.89999969,0,0,0.89999969,9.2261225,8.4999264)">
          <g
             id="svga-group-eyesback-left">
            <path
               id="SvgjsPath20753"
               d="m 59.722,85.795 c 2.578,4.596 2.19,5.704 10.268,4.467 9.691,0 17.711,-1.976 17.711,-5.558 0,-3.582 -4.925,-7.115 -17.196,-4.923 C 64.489,80.855 59.722,84 59.722,85.795 Z"
               inkscape:connector-curvature="0"
               style="opacity:1;fill:url(#SvgjsRadialGradient20754)" />
          </g>
          <g
             id="svga-group-eyesiriswrapper-left"
             transform="translate(0.25,0.25)">
            <g
               id="svga-group-eyesiriscontrol-left">
              <g
                 id="svga-group-eyesiris-left"
                 transform="matrix(0.89999969,0,0,0.89999969,7.4001229,8.3999253)">
                <path
                   id="SvgjsPath20743"
                   d="m 79.788,85.588 c -0.869,3.192 -4.162,5.073 -7.361,4.196 -3.197,-0.876 -5.084,-4.178 -4.214,-7.371 0.869,-3.195 4.168,-5.076 7.365,-4.198 3.194,0.875 5.081,4.177 4.21,7.373 z"
                   inkscape:connector-curvature="0"
                   style="opacity:1;fill:#75815c;stroke:#435322;stroke-width:0.5" />
                <path
                   id="SvgjsPath20744"
                   d="m 78.855,85.662 c -0.849,2.452 -3.407,3.881 -5.899,3.199 -2.3,-0.631 -3.752,-2.838 -3.563,-5.171 0.853,-0.067 1.787,-0.087 2.756,-0.04 -0.01,0.033 -0.027,0.062 -0.036,0.096 -0.306,1.125 0.407,2.305 1.592,2.63 1.189,0.326 2.401,-0.326 2.707,-1.451 0.039,-0.147 0.06,-0.294 0.065,-0.439 0.813,0.296 1.611,0.679 2.378,1.176 z"
                   stroke-width="none"
                   inkscape:connector-curvature="0"
                   style="opacity:1;fill:#889075" />
                <path
                   id="SvgjsPath20745"
                   d="m 74.813,82.21 c -1.203,-0.344 -2.429,0.342 -2.739,1.54 -0.311,1.191 0.412,2.438 1.614,2.783 1.204,0.345 2.43,-0.342 2.741,-1.534 0.313,-1.198 -0.413,-2.444 -1.616,-2.789 z m 0.262,4.232 c -0.5,0.156 -1.017,-0.051 -1.154,-0.462 -0.133,-0.411 0.163,-0.867 0.667,-1.019 0.503,-0.156 1.019,0.051 1.157,0.459 0.136,0.411 -0.163,0.867 -0.67,1.022 z"
                   stroke-width="none"
                   inkscape:connector-curvature="0"
                   style="opacity:0.9;fill:#000000" />
                <path
                   id="SvgjsPath20746"
                   d="m 70.811,87.159 c -0.37,0.222 -0.922,0.023 -1.238,-0.447 -0.316,-0.466 -0.269,-1.024 0.102,-1.247 0.368,-0.219 0.925,-0.021 1.239,0.446 0.312,0.467 0.267,1.027 -0.103,1.248 z"
                   stroke-width="none"
                   inkscape:connector-curvature="0"
                   style="opacity:0.6;fill:#ffffff" />
                <path
                   id="SvgjsPath20747"
                   d="m 78.71,83.74 c -0.846,0.507 -2.117,0.051 -2.837,-1.02 -0.72,-1.072 -0.612,-2.352 0.234,-2.857 0.844,-0.509 2.118,-0.053 2.834,1.019 0.719,1.072 0.615,2.35 -0.231,2.858 z"
                   stroke-width="none"
                   inkscape:connector-curvature="0"
                   style="opacity:0.8;fill:#ffffff" />
              </g>
            </g>
          </g>
          <g
             id="svga-group-eyesfront-left">
            <path
               id="SvgjsPath20778"
               d="m 54.8,84.999 c 0,13.807 8.507,25 19,25 10.493,0 19,-11.193 19,-25 0,-13.807 -8.507,-25 -19,-25 -10.493,0 -19,11.193 -19,25 z m 4.922,0.796 c 0,-1.795 4.768,-4.939 10.782,-6.014 12.271,-2.192 17.196,1.342 17.196,4.923 0,3.582 -8.02,5.558 -17.711,5.558 -8.077,1.237 -7.689,0.129 -10.267,-4.467 z"
               stroke-width="none"
               inkscape:connector-curvature="0"
               style="opacity:1;fill:#ecc4b8" />
            <path
               id="SvgjsPath20779"
               d="M 58.697,86.046 C 58.622,92.95 67.344,98.513 76.735,98.48 86.124,98.44 93.722,92.817 93.697,85.912 93.674,79.009 86.05,73.445 76.657,73.481 67.265,73.519 58.799,76.602 58.697,86.046 Z m 1.025,-0.251 c 0,-1.795 4.768,-4.939 10.782,-6.014 12.271,-2.192 17.196,1.342 17.196,4.923 0,3.582 -8.02,5.558 -17.711,5.558 -8.077,1.237 -7.689,0.129 -10.267,-4.467 z"
               inkscape:connector-curvature="0"
               style="opacity:1;fill:url(#SvgjsRadialGradient20780)" />
            <path
               id="SvgjsPath20784"
               d="m 59.722,85.795 c 2.578,4.596 2.19,5.704 10.268,4.467 9.691,0 17.711,-1.976 17.711,-5.558 0,-3.582 -4.925,-7.115 -17.196,-4.923 C 64.489,80.855 59.722,84 59.722,85.795 Z"
               inkscape:connector-curvature="0"
               style="opacity:1;fill:url(#SvgjsRadialGradient20785)" />
            <path
               id="SvgjsPath20788"
               d="m 86.716,88.797 c 0,0 -1.383,0.778 -2.354,1.036 -1.209,0.318 -4.997,0.895 -11.562,1.795 7.49,-0.531 10.48,-0.82 11.762,-1.189 1.016,-0.292 2.154,-1.642 2.154,-1.642 z"
               stroke-width="none"
               inkscape:connector-curvature="0"
               style="opacity:1;fill:#be725b" />
            <path
               id="SvgjsPath20789"
               d="m 87.757,83.463 c 0.062,0.073 0.057,0.18 -0.011,0.247 -0.068,0.066 -0.175,0.069 -0.247,0.007 l -3.871,-3.383 c -11.411,-1.304 -19.93,0.687 -23.25,5.247 l 0.536,2.4 -3.114,-2.69 c 3.172,-4.526 6.306,-7.915 25.828,-6.735 2.305,2.252 3.509,3.379 4.129,4.907 z m -1.125,3.979 c 0.082,-0.079 0.102,-0.205 0.048,-0.306 -0.052,-0.103 -0.166,-0.156 -0.279,-0.135 -3.954,2.317 -11.021,2.523 -22.642,3.426 l -2.25,-1.384 1.653,2.046 c 12.582,-0.588 21.844,-1.333 23.47,-3.647 z"
               stroke-width="none"
               inkscape:connector-curvature="0"
               style="opacity:1;fill:#b3725b" />
          </g>
        </g>
        <g
           id="svga-group-eyes-right"
           transform="matrix(0.89999969,0,0,0.89999969,10.733989,8.4999264)">
          <g
             id="svga-group-eyesback-right">
            <path
               id="SvgjsPath20761"
               d="m 139.879,85.795 c -2.578,4.596 -2.19,5.704 -10.268,4.467 -9.691,0 -17.711,-1.976 -17.711,-5.558 0,-3.582 4.925,-7.115 17.196,-4.923 6.015,1.074 10.783,4.219 10.783,6.014 z"
               inkscape:connector-curvature="0"
               style="opacity:1;fill:url(#SvgjsRadialGradient20762)" />
          </g>
          <g
             id="svga-group-eyesiriswrapper-right"
             transform="translate(-0.25,0.25)">
            <g
               id="svga-group-eyesiriscontrol-right">
              <g
                 id="svga-group-eyesiris-right"
                 transform="matrix(0.89999969,0,0,0.89999969,12.600039,8.3999253)">
                <path
                   id="SvgjsPath20748"
                   d="m 131.788,85.588 c -0.869,3.192 -4.162,5.073 -7.362,4.196 -3.196,-0.876 -5.084,-4.178 -4.214,-7.371 0.869,-3.195 4.169,-5.076 7.365,-4.198 3.195,0.875 5.081,4.177 4.211,7.373 z"
                   inkscape:connector-curvature="0"
                   style="opacity:1;fill:#75815c;stroke:#435322;stroke-width:0.5" />
                <path
                   id="SvgjsPath20749"
                   d="m 130.855,85.662 c -0.849,2.452 -3.408,3.881 -5.899,3.199 -2.3,-0.631 -3.753,-2.838 -3.563,-5.171 0.854,-0.067 1.787,-0.087 2.756,-0.04 -0.01,0.033 -0.027,0.062 -0.036,0.096 -0.306,1.125 0.407,2.305 1.593,2.63 1.189,0.326 2.401,-0.326 2.707,-1.451 0.038,-0.147 0.06,-0.294 0.065,-0.439 0.812,0.296 1.611,0.679 2.377,1.176 z"
                   stroke-width="none"
                   inkscape:connector-curvature="0"
                   style="opacity:1;fill:#889075" />
                <path
                   id="SvgjsPath20750"
                   d="m 126.813,82.21 c -1.202,-0.344 -2.429,0.342 -2.738,1.54 -0.312,1.191 0.412,2.438 1.613,2.783 1.204,0.345 2.431,-0.342 2.742,-1.534 0.311,-1.198 -0.414,-2.444 -1.617,-2.789 z m 0.262,4.232 c -0.5,0.156 -1.018,-0.051 -1.154,-0.462 -0.133,-0.411 0.163,-0.867 0.667,-1.019 0.503,-0.156 1.019,0.051 1.157,0.459 0.136,0.411 -0.163,0.867 -0.67,1.022 z"
                   stroke-width="none"
                   inkscape:connector-curvature="0"
                   style="opacity:0.9;fill:#000000" />
                <path
                   id="SvgjsPath20751"
                   d="m 122.812,87.159 c -0.37,0.222 -0.923,0.023 -1.238,-0.447 -0.316,-0.466 -0.27,-1.024 0.102,-1.247 0.367,-0.219 0.926,-0.021 1.239,0.446 0.312,0.467 0.266,1.027 -0.103,1.248 z"
                   stroke-width="none"
                   inkscape:connector-curvature="0"
                   style="opacity:0.6;fill:#ffffff" />
                <path
                   id="SvgjsPath20752"
                   d="m 130.71,83.74 c -0.846,0.507 -2.116,0.051 -2.837,-1.02 -0.72,-1.072 -0.612,-2.352 0.234,-2.857 0.845,-0.509 2.117,-0.053 2.834,1.019 0.719,1.072 0.616,2.35 -0.231,2.858 z"
                   stroke-width="none"
                   inkscape:connector-curvature="0"
                   style="opacity:0.8;fill:#ffffff" />
              </g>
            </g>
          </g>
          <g
             id="svga-group-eyesfront-right">
            <path
               id="SvgjsPath20799"
               d="m 125.801,59.999 c -10.493,0 -19,11.193 -19,25 0,13.807 8.507,25 19,25 10.493,0 19,-11.193 19,-25 0,-13.807 -8.507,-25 -19,-25 z m 3.81,30.263 c -9.691,0 -17.711,-1.976 -17.711,-5.558 0,-3.582 4.925,-7.115 17.196,-4.923 6.015,1.074 10.782,4.218 10.782,6.014 -2.577,4.596 -2.19,5.704 -10.267,4.467 z"
               stroke-width="none"
               inkscape:connector-curvature="0"
               style="opacity:1;fill:#ecc4b8" />
            <path
               id="SvgjsPath20800"
               d="m 122.943,73.48 c -9.393,-0.036 -17.017,5.528 -17.04,12.431 -0.025,6.906 7.573,12.529 16.962,12.568 9.391,0.034 18.113,-5.529 18.038,-12.434 -0.101,-9.443 -8.567,-12.526 -17.96,-12.565 z m 6.668,16.782 c -9.691,0 -17.711,-1.976 -17.711,-5.558 0,-3.582 4.925,-7.115 17.196,-4.923 6.015,1.074 10.782,4.218 10.782,6.014 -2.577,4.596 -2.19,5.704 -10.267,4.467 z"
               inkscape:connector-curvature="0"
               style="opacity:1;fill:url(#SvgjsRadialGradient20801)" />
            <path
               id="SvgjsPath20805"
               d="m 139.879,85.795 c -2.578,4.596 -2.19,5.704 -10.268,4.467 -9.691,0 -17.711,-1.976 -17.711,-5.558 0,-3.582 4.925,-7.115 17.196,-4.923 6.015,1.074 10.783,4.219 10.783,6.014 z"
               inkscape:connector-curvature="0"
               style="opacity:1;fill:url(#SvgjsRadialGradient20806)" />
            <path
               id="SvgjsPath20809"
               d="m 112.885,88.797 c 0,0 1.383,0.778 2.354,1.036 1.209,0.318 4.997,0.895 11.562,1.795 -7.49,-0.531 -10.48,-0.82 -11.762,-1.189 -1.017,-0.292 -2.154,-1.642 -2.154,-1.642 z"
               stroke-width="none"
               inkscape:connector-curvature="0"
               style="opacity:1;fill:#be725b" />
            <path
               id="SvgjsPath20810"
               d="m 115.973,78.555 c 19.522,-1.179 22.656,2.209 25.828,6.735 l -3.114,2.69 0.536,-2.4 c -3.32,-4.56 -11.839,-6.551 -23.25,-5.247 l -3.871,3.383 c -0.072,0.063 -0.179,0.06 -0.247,-0.007 -0.067,-0.066 -0.072,-0.174 -0.011,-0.247 0.62,-1.527 1.824,-2.654 4.129,-4.907 z m 20.465,12.535 1.653,-2.046 -2.25,1.384 c -11.621,-0.903 -18.688,-1.109 -22.642,-3.426 -0.113,-0.021 -0.228,0.032 -0.279,0.135 -0.054,0.102 -0.034,0.227 0.048,0.306 1.627,2.313 10.888,3.058 23.47,3.647 z"
               stroke-width="none"
               inkscape:connector-curvature="0"
               style="opacity:1;fill:#b3725b" />
          </g>
        </g>
        <g
           id="svga-group-facehighlight-single">
          <path
             id="SvgjsPath15400"
             d="m 141,113.974 c 0.035,22.622 -18.292,40.994 -40.938,41.025 -22.642,0.037 -41.028,-18.273 -41.063,-40.9 -0.035,-22.62 18.292,-41.064 40.937,-41.1 22.643,-0.035 41.031,18.35 41.064,40.975 z"
             inkscape:connector-curvature="0"
             style="opacity:1;fill:url(#SvgjsRadialGradient15401)" />
          <path
             id="SvgjsPath15404"
             d="m 137.5,53.999 c 0,20.711 -16.789,37.5 -37.499,37.5 -20.711,0 -37.501,-16.789 -37.501,-37.5 0,-20.711 16.79,-37.5 37.501,-37.5 20.71,0 37.499,16.789 37.499,37.5 z"
             inkscape:connector-curvature="0"
             style="opacity:1;fill:url(#SvgjsRadialGradient15405)" />
        </g>
        <g
           id="svga-group-eyebrows-left"
           transform="matrix(0.88430952,-0.16732039,0.16732039,0.88430952,-5.1378448,22.274662)">
          <path
             id="SvgjsPath20500"
             d="M 54.205,76 C 75.5,58.2 97.741,71.497 90.924,74.732 88.252,76 78.133,64.999 54.205,76 Z"
             stroke-width="none"
             inkscape:connector-curvature="0"
             style="opacity:1;fill:#d0946d" />
        </g>
        <g
           id="svga-group-eyebrows-right"
           transform="matrix(0.88430952,0.16732039,-0.16732039,0.88430952,28.275941,-11.189416)">
          <path
             id="SvgjsPath20501"
             d="M 145.795,76 C 124.5,58.2 102.259,71.497 109.076,74.732 111.748,76 121.867,64.999 145.795,76 Z"
             stroke-width="none"
             inkscape:connector-curvature="0"
             style="opacity:1;fill:#d0946d" />
        </g>
        <g
           id="svga-group-nose-single"
           transform="matrix(1.200001,0,0,1.200001,-19.893694,-25.078201)">
          <path
             id="SvgjsPath20706"
             d="m 96.831,88.524 c 0,0 -1.399,11.117 -2.026,13.281 -1.379,4.752 -6.168,11.417 -5.239,14.429 1.859,6.022 7.537,4.493 10.524,4.471 2.763,-0.022 8.072,1.552 9.162,-2.37 0.352,-1.266 -0.441,-4.466 -0.441,-4.466 0,0 -2.644,3.112 -8.875,2.767 -1.778,-0.099 -4.671,-2.096 -4.704,-4.912 -0.043,-3.817 1.802,-7.035 2.205,-10.824 0.304,-2.878 -0.606,-12.376 -0.606,-12.376 z"
             stroke-width="none"
             inkscape:connector-curvature="0"
             style="opacity:1;fill:#dda696" />
          <path
             id="SvgjsPath20707"
             d="m 105.194,118.969 c 1.075,0 1.366,0.326 1.366,0.729 0,0.404 -0.335,1.026 -1.366,0.73 -1.134,-0.323 -3.113,-0.175 -3.113,-0.175 0,0 2.036,-1.284 3.113,-1.284 z m -10.272,0 c -1.077,0.001 -1.366,0.328 -1.366,0.733 -10e-4,0.403 0.323,0.983 1.366,0.729 1.15,-0.282 3.112,-0.175 3.112,-0.175 0,0 -2.035,-1.283 -3.112,-1.287 z m 13.888,-5.1 c 0,0 1.489,1.933 1.18,3.975 -0.301,1.983 -3.31,2.861 -3.31,2.861 0,0 2.089,-1.516 2.342,-3.356 0.118,-0.863 -0.212,-3.48 -0.212,-3.48 z m -18.383,-1.986 c 0,0 -1.086,2.704 -0.772,4.352 0.571,2.976 3.704,4.164 3.704,4.164 0,0 -1.955,-2.039 -2.65,-3.842 -0.761,-1.97 -0.282,-4.674 -0.282,-4.674 z"
             stroke-width="none"
             inkscape:connector-curvature="0"
             style="opacity:1;fill:#be725b" />
          <path
             id="SvgjsPath20708"
             d="m 105.141,115.311 c 1.043,-0.889 1.148,-1.396 0.932,-1.729 -0.215,-0.334 -0.841,-0.545 -1.714,0.528 -0.963,1.18 -3.056,2.054 -3.056,2.054 0,0 2.795,0.034 3.838,-0.853 z"
             stroke-width="none"
             inkscape:connector-curvature="0"
             style="opacity:1;fill:#fbe4dd" />
        </g>
        <g
           id="svga-group-beardwrap"
           transform="matrix(0.95999969,0,0,0.99979969,4.0000312,0.02669531)">
          <g
             id="svga-group-beard-single"
             transform="matrix(0.9499999,0,0,0.9499999,5.0000102,9.5610136)">
            <path
               id="SvgjsPath20246"
               d="m 150.78,88.74 c -3.07,1.75 -5.3,2.95 -7.16,4.25 -11.33,7.55 -12.48,25.22 -14.44,41.87 -5.95,-10.49 -5.03,-12.28 -12.86,-13.87 -9.61,-2.1 -12.81,-3.02 -16.32,1.62 -2.72,-2.76 -3.71,-4.23 -10.28,-2.8 -11.7,2.31 -12.28,2.01 -15.77,9.5 -0.25,0.59 -2.83,4.99 -3.13,5.56 -0.57,-3.98 0.05,-4.11 -1.58,-12.88 -1.72,-9.07 -2.45,-16.22 -6.94,-23.31 -4.34,-6.03 -13.78,-10.55 -18.4,-12.1 0,7.61 0.73,18.98 0.87,20.44 1.75,17.86 8.72,45.74 21.16,57.45 10.4,9.39 21.98,8.75 34.11,8.75 6.25,0 18.06,0.43 25.25,-3.06 9.77,-3.78 16.54,-14.45 20.4,-24.19 6.72,-16.43 10.41,-32.87 10.41,-59.39 -3.55,1.34 -4.24,1.49 -5.32,2.16 z m -46.79,59.42 c 0.12,-0.69 0.49,-1.7 0.64,-1.97 1.06,-2.25 5.94,-8.9 6.51,-9.39 -6.47,1.93 -14.08,2.15 -22.05,0.27 1.9,2.27 6.39,8.14 6.92,11.09 -7.06,-3.07 -16.31,-4.46 -15.35,-12.04 0.51,-5.54 6.87,-5.79 11.06,-6.06 16.78,-0.32 26.91,-1.16 27.63,6.06 0.91,7.56 -8.17,8.98 -15.36,12.04 z"
               stroke-width="none"
               inkscape:connector-curvature="0"
               style="opacity:1;fill:#e77322" />
            <path
               id="SvgjsPath20247"
               d="m 156.1,86.58 c 0,26.52 -3.69,42.96 -10.41,59.39 -3.86,9.74 -10.63,20.41 -20.4,24.19 -7.19,3.49 -19,3.06 -25.25,3.06 -12.13,0 -23.71,0.64 -34.11,-8.75 C 53.49,152.76 46.52,124.88 44.77,107.02 44.63,105.55 43.9,94.19 43.9,86.58 c 0.99,0.33 2.21,0.81 3.54,1.4 6.62,29.87 8.3,71.28 41.56,83.02 -1,-2 -4,-6 -4,-6 0,0 6,4 9,6 0,-1 -0.98,-4.88 -0.98,-4.88 0,0 4.78,3.43 7.78,4.43 0,-1 -1,-4.08 -1,-4.08 l 5.23,3.45 L 113,163 c 0,0 -2.5,5.25 -3.5,7.25 3.6,-0.97 9.48,-5.3 9.48,-5.3 0,0 -0.98,3.05 -0.98,4.05 29.21,-16.43 29.26,-51.2 33.61,-80.71 0.81,-0.38 1.87,-0.72 4.49,-1.71 z m -67.01,50.49 c 0.28,0.33 0.61,0.74 0.98,1.21 6.41,4.06 13.67,3.89 19.81,0.08 0.63,-0.83 1.11,-1.43 1.27,-1.56 -6.48,1.93 -14.1,2.14 -22.06,0.27 z m 11.65,30.76 c -0.4,-0.75 -0.96,-1.72 -1.12,-2.56 0,-0.01 -0.3,-1.24 -0.3,-1.24 -0.02,-0.09 -0.38,-2.55 -0.31,-2.55 -0.05,-1.35 -0.24,-3.13 -0.34,-4.14 -0.77,6.8 0.31,8.43 2.07,10.49 z m 3.62,-25.49 c -0.01,0 0.01,0.1 -0.03,0.27 -0.31,1.44 -2.68,4.35 -2.9,6.13 -0.08,-2.96 2.78,-5.4 2.93,-6.4 z m 20.77,-3.6 c 1.42,3.26 0.28,5.54 -1.25,8.75 1.25,-4.53 1.92,-5.67 1.25,-8.75 z m -5.5,-9.75 c 1.45,2.19 1.98,2.59 3.75,9.25 -1.65,-3.65 -1.82,-4.67 -3.75,-9.25 z m 1.5,-2.75 c 1.98,1.63 3.34,3.11 4.75,8.5 -1.79,-4 -2.98,-6.35 -4.75,-8.5 z m -17.25,38.5 c 0.55,-5.94 2.31,-9.27 6.25,-13.75 -2.9,4.54 -4.75,8.64 -6.25,13.75 z m 6.25,-2.25 c 2.13,-3.31 4.46,-8.56 8.75,-9.75 -1.54,0.74 -2.28,1.58 -3.68,3.27 0,0 -0.76,0.89 -1.88,2.54 -0.8,1.16 -2.19,2.95 -3.19,3.94 z m 4.25,4.25 c 2.42,-3.78 2.26,-4.91 4.75,-7.25 -2.32,3.21 -2.17,4.64 -4.75,7.25 z m -1.75,-12.25 c 1.26,-4.02 3.23,-7.66 7.25,-9.75 -3.05,2.35 -5.41,6.35 -7.25,9.75 z m -10.25,2.73 c -0.96,-2.91 -0.36,-5.47 0.25,-8.49 -0.17,3.9 -0.62,5.93 -0.25,8.49 z m 29.5,-4.98 c -2.85,3.86 -5.51,5.68 -9,7 3.29,-1.94 4.71,-3.22 9,-7 z m 4.25,-11.75 c -1.54,7.31 -7.2,11.9 -13.75,15.5 6.9,-5.64 9.47,-8.88 9.47,-8.88 1.43,-1.62 3.2,-4.11 4.28,-6.62 z m -6,6.25 c -0.05,-6.28 1.03,-10.04 4.5,-15.5 -2.16,5.35 -3.69,10.95 -4.5,15.5 z m 12.25,-25.75 c -0.05,2.66 0.02,7.63 -7,17.25 0.02,-0.05 4.82,-10.56 4.76,-10.56 1.35,-3.15 1.69,-4.39 2.24,-6.69 z m -7.75,5.25 c -0.15,-5.53 1.26,-6.58 3.5,-12.75 -1.13,5.86 -2.57,6.87 -3.5,12.75 z m 12,-25.25 c -1.17,6.98 -2.54,8.72 -7.25,19 1.99,-8.53 4.08,-10.75 7.25,-19 z m -70.51,46.5 c -1.61,-3.29 -2.62,-5.37 -1.25,-8.75 -0.26,1.18 -0.48,1.72 0.01,4.41 0,0.01 1.24,4.34 1.24,4.34 z m 0.5,-9.25 c 1.5,-6.29 2.77,-7.73 3.75,-9.25 -2.63,6.06 -1.39,4.18 -3.75,9.25 z m -2.5,-3.5 c 1.15,-4.74 2.51,-6.57 4.75,-8.5 -2.06,2.43 -3.14,5.04 -4.75,8.5 z m 15.75,16.25 c 4.37,4.74 5.65,8.51 6.25,13.75 -1.42,-5.18 -3.24,-8.79 -6.25,-13.75 z m -8.75,1.75 c 1.43,0.38 2.72,1.05 4.19,2.84 0,0 1.31,1.42 3.61,5.37 0.51,0.89 0.95,1.54 0.95,1.54 -1.29,-1.32 -5.1,-6.47 -5.08,-6.47 -1.8,-2.15 -2.37,-2.64 -3.67,-3.28 z m -1.25,6.75 c 2.72,2.57 2.46,3.8 4.75,7.25 -2.5,-2.52 -2.53,-4.16 -4.75,-7.25 z m 0.25,-14.75 c 1.89,0.97 3.04,1.99 3.71,2.93 0,0 0.46,0.6 0.89,1.21 1.53,2.38 1.84,3.1 2.65,5.61 -0.73,-1.37 -1.12,-2.13 -3.16,-5.26 -0.43,-0.59 -0.87,-1.17 -0.87,-1.17 -1.21,-1.68 -2.31,-2.62 -3.22,-3.32 z m 17.25,4 c 0.67,3.47 0.41,4.42 -0.25,6.5 0.39,-2.45 0.36,-2.15 0.25,-6.5 z m -0.5,-6 c 1,0.7 2.15,1.68 2.88,3.9 0,0 1.34,3.22 0.37,7.88 0.07,-1.48 -0.15,-8.46 -3.25,-11.78 z m -19.75,16.5 c -3.87,-1.31 -6.51,-3.75 -9,-7 3.29,2.97 5.41,4.84 9,7 z m 0.5,-3.25 c -6.51,-3.61 -12.1,-8.05 -13.75,-15.5 0.94,2.24 2.1,4.23 4.27,6.63 0,0 2.7,3.14 9.48,8.87 z M 65.37,131.24 c 3.01,4.73 4.56,8.58 4.5,15.5 -0.89,-4.99 -2.5,-10.55 -4.5,-15.5 z m -0.75,7 c -3.86,-5.17 -6.82,-10.71 -7,-17.25 1.25,5.53 3.4,9.05 7,17.25 z m -2.75,-24.75 c 2.42,6.51 3.65,7.56 3.5,12.75 -0.76,-5.69 -2.37,-6.44 -3.5,-12.75 z m -1.25,6.5 c -3.79,-8.25 -5.96,-11.29 -7.25,-19 3.51,9.15 5.36,10.92 7.25,19 z"
               stroke-width="none"
               inkscape:connector-curvature="0"
               style="opacity:1;fill:#d85f0a" />
            <path
               id="SvgjsPath20248"
               d="m 150.78,88.74 c -3.07,1.75 -5.3,2.95 -7.16,4.25 -11.33,7.55 -12.48,25.22 -14.44,41.87 -5.95,-10.49 -5.03,-12.28 -12.86,-13.87 -9.61,-2.1 -12.81,-3.02 -16.32,1.62 -2.72,-2.76 -3.71,-4.23 -10.28,-2.8 -11.7,2.31 -12.28,2.01 -15.77,9.5 -0.25,0.59 -2.83,4.99 -3.13,5.56 -0.57,-3.98 0.05,-4.11 -1.58,-12.88 -1.72,-9.07 -2.45,-16.22 -6.94,-23.31 -4.34,-6.03 -13.78,-10.55 -18.4,-12.1 0,7.61 0.73,18.98 0.87,20.44 1.75,17.86 8.72,45.74 21.16,57.45 10.4,9.39 21.98,8.75 34.11,8.75 6.25,0 18.06,0.43 25.25,-3.06 9.77,-3.78 16.54,-14.45 20.4,-24.19 6.72,-16.43 10.41,-32.87 10.41,-59.39 -3.55,1.34 -4.24,1.49 -5.32,2.16 z m -14.04,70.29 c -4.76,7.25 -15.49,12.01 -19.96,12.27 -1.55,0.17 -8.89,1.47 -25.86,0.75 C 88,172.03 79.62,171.17 75.27,168.89 58.34,161.82 50.57,133.32 47.1,115.2 46.07,110.35 44.77,97.67 44.18,86.97 c 6.64,2.9 14.69,7.96 18.37,14.49 3.19,6.11 3.94,13.31 5.68,20.81 2.21,9.72 1.11,6.72 2.35,13.05 0.04,0.16 0.07,0.32 0.11,0.47 9.23,-14.36 4.63,-12.18 19.2,-15.18 4.51,-1.1 7,-1.32 10.11,2.4 3.87,-4.58 6.28,-3.27 16.14,-1.2 7.81,1.73 5.93,2.91 12.33,12.65 0.25,0.38 0.76,1.19 0.84,1.34 0.57,-2.28 0.85,-5.97 1.5,-9.47 0.19,-1 3.43,-16.39 4.59,-19.86 3.05,-9.63 7.85,-12.19 15.67,-17.21 1.03,-0.73 1.96,-1.02 4.76,-2.3 -1.44,23.37 -5.28,52.87 -19.09,72.07 z m -26.73,-29.7 c -4.89,-0.08 -5.82,0.4 -18.27,-0.03 -3.78,0.06 -7.55,0.12 -9.99,2.5 -2.92,2.67 -4.44,10.55 5.77,14.03 3.29,1.04 8.14,2.54 8.94,2.88 0,-3.24 -5.72,-10.27 -6.63,-11.3 9.19,2.3 17.44,1 20.59,-0.27 -1.4,1.52 -6.88,8.4 -6.88,11.57 8.75,-2.92 13.75,-3.65 15.99,-8.13 2.12,-3.85 1.01,-11.42 -9.52,-11.25 z m -6.02,18.83 c 0.12,-0.69 0.49,-1.7 0.64,-1.97 1.06,-2.25 5.94,-8.9 6.51,-9.39 -6.47,1.93 -14.08,2.15 -22.05,0.27 1.9,2.27 6.39,8.14 6.92,11.09 -7.06,-3.07 -16.31,-4.46 -15.35,-12.04 0.51,-5.54 6.87,-5.79 11.06,-6.06 16.78,-0.32 26.91,-1.16 27.63,6.06 0.91,7.56 -8.17,8.98 -15.36,12.04 z"
               stroke-width="none"
               inkscape:connector-curvature="0"
               style="opacity:1;fill:#b94c00" />
          </g>
        </g>
        <g
           id="svga-group-mustache-single">
          <path
             id="SvgjsPath20249"
             d="m 100,18.13 0,0 0,0 0,0 z"
             stroke-width="none"
             inkscape:connector-curvature="0"
             style="opacity:1;fill:#2a232b" />
        </g>
        <g
           id="svga-group-hair-front"
           transform="matrix(0.95999969,0,0,0.99979969,4.0000308,0.01114024)">
          <path
             id="SvgjsPath20813"
             d="m 57.01,18.11 c -9.29,3.25 -23.25,29 -19.24,55.05 1.43,9.27 0.15,4.2 6.29,19.67 l 4.49,0.3 C 50.06,88.8 41.23,74.87 44.32,63.25 46.7,54.28 47.46,35.3 57.01,18.11 Z m 98.67,45.13 c 3.09,11.62 -5.74,25.56 -4.23,29.88 l 4.49,-0.3 c 6.13,-15.47 4.86,-10.4 6.29,-19.67 4.01,-26.05 -9.95,-51.8 -19.24,-55.05 9.55,17.2 10.31,36.18 12.69,45.14 z"
             stroke-width="none"
             inkscape:connector-curvature="0"
             style="opacity:1;fill:#aa5920" />
          <path
             id="SvgjsPath20814"
             d="m 57.01,18.11 c -0.91,1.47 -1.71,2.96 -2.42,4.45 -4.5,3.24 -7.95,7.8 -11.32,12.53 4.06,-9.05 9.41,-15.46 13.74,-16.98 z M 38.53,63.85 c 0,-0.01 0.01,-0.02 0.01,-0.03 -0.11,0.16 -0.1,0.14 -0.01,0.03 z M 38.26,75 c 2.63,-4.58 2.68,-8.41 4.71,-10.92 -0.54,4.46 0.81,9.25 1.01,11.92 0.25,3.33 4.14,16.26 4.58,17.12 C 50.06,88.8 42.2,75 44.72,63.24 46.14,56.6 47.81,47.3 49.44,37.31 L 49.39,37.2 c -1,0.35 -8.23,5.87 -10.63,14.29 3.27,-5.93 9.35,-13.16 10.46,-14 -1.37,4.54 -3.62,7.54 -4.24,14.98 -2.93,2.1 -5.68,7.93 -7.3,12.72 0.94,-1.3 1.04,-5.26 7.19,-12.14 -0.57,4.24 -0.24,6.21 -1.78,10.23 C 40.4,65.55 39.68,69.97 38.26,75 Z M 156.74,35.09 c -3.37,-4.72 -6.83,-9.29 -11.32,-12.53 -0.71,-1.49 -1.51,-2.98 -2.42,-4.45 4.32,1.52 9.67,7.93 13.74,16.98 z m 4.72,28.73 c 0,0.01 0.01,0.02 0.01,0.03 0.09,0.11 0.1,0.13 -0.01,-0.03 z m -4.54,-0.55 c -1.54,-4.02 -1.21,-5.99 -1.78,-10.23 6.16,6.88 6.25,10.84 7.19,12.14 -1.62,-4.79 -4.37,-10.62 -7.3,-12.72 -0.62,-7.45 -2.87,-10.44 -4.24,-14.98 1.11,0.84 7.18,8.07 10.46,14 -2.4,-8.41 -9.63,-13.93 -10.63,-14.29 l -0.05,0.11 c 1.63,9.99 3.29,19.29 4.72,25.93 2.52,11.76 -5.34,25.56 -3.83,29.88 0.44,-0.86 4.33,-13.8 4.58,-17.12 0.2,-2.67 1.56,-7.46 1.01,-11.92 2.02,2.52 2.07,6.34 4.71,10.92 -1.44,-5.02 -2.16,-9.44 -4.84,-11.72 z"
             stroke-width="none"
             inkscape:connector-curvature="0"
             style="opacity:1;fill:#9b480e" />
          <path
             id="SvgjsPath20815"
             d="M 44.06,92.83 C 41.53,85.35 40,82.94 39.07,75.36 36.83,54.83 40.99,43.47 40.99,43.47 c 2.25,-7.64 8.02,-22.11 16.02,-25.2 -9.45,3.14 -22.48,23.89 -19.5,54.51 0.68,8.58 3.92,13.4 6.55,20.05 z M 162.49,72.79 c 2.98,-30.63 -10.05,-51.38 -19.5,-54.51 8,3.08 13.77,17.56 16.02,25.2 0,0 4.16,11.37 1.92,31.89 -0.93,7.58 -2.46,9.99 -4.99,17.47 2.63,-6.66 5.87,-11.48 6.55,-20.05 z"
             stroke-width="none"
             inkscape:connector-curvature="0"
             style="opacity:1;fill:#7c3300" />
        </g>
        <g
           id="svga-group-glasses-single">
          <path
             id="SvgjsPath20741"
             d="m 100,18.13 0,0 0,0 0,0 z"
             stroke-width="none"
             inkscape:connector-curvature="0"
             style="opacity:1;fill:#26120b" />
        </g>
      </g>
    </g>
  </g>
  <defs
     id="SvgjsDefs15353">
    <radialGradient
       id="SvgjsRadialGradient15401"
       cx="100"
       cy="114"
       r="41"
       gradientUnits="userSpaceOnUse"
       class="svga-on-canvas-facehighlight-gradient-single-0">
      <stop
         id="SvgjsStop15402"
         stop-opacity="0.5"
         stop-color="#fbe4dd"
         offset="0" />
      <stop
         id="SvgjsStop15403"
         stop-opacity="0"
         stop-color="#ecc4b8"
         offset="0.9" />
    </radialGradient>
    <radialGradient
       id="SvgjsRadialGradient15405"
       cx="100"
       cy="54"
       r="37"
       gradientUnits="userSpaceOnUse"
       class="svga-on-canvas-facehighlight-gradient-single-1">
      <stop
         id="SvgjsStop15406"
         stop-opacity="0.5"
         stop-color="#fbe4dd"
         offset="0" />
      <stop
         id="SvgjsStop15407"
         stop-opacity="0"
         stop-color="#ecc4b8"
         offset="0.9" />
    </radialGradient>
    <radialGradient
       id="SvgjsRadialGradient18060"
       cx="-568.659"
       cy="-521.04199"
       r="59.750999"
       gradientTransform="matrix(0.096,-0.0248,0.0245,0.0961,141.2814,119.9893)"
       gradientUnits="userSpaceOnUse"
       class="svga-on-canvas-eyesiris-gradient-left-1">
      <stop
         id="SvgjsStop18061"
         stop-opacity="1"
         stop-color="#ffffff"
         offset="0" />
      <stop
         id="SvgjsStop18062"
         stop-opacity="0"
         stop-color="#ffffff"
         offset="1" />
    </radialGradient>
    <radialGradient
       id="SvgjsRadialGradient18064"
       cx="-582.83801"
       cy="-519.099"
       r="59.744999"
       gradientTransform="matrix(0.0991,8.856319e-4,-0.0011,0.0991,131.1134,135.9855)"
       gradientUnits="userSpaceOnUse"
       class="svga-on-canvas-eyesiris-gradient-left-2">
      <stop
         id="SvgjsStop18065"
         stop-opacity="1"
         stop-color="#ffffff"
         offset="0" />
      <stop
         id="SvgjsStop18066"
         stop-opacity="0"
         stop-color="#ffffff"
         offset="1" />
    </radialGradient>
    <linearGradient
       id="SvgjsLinearGradient18070"
       x1="122.67"
       y1="88.267998"
       x2="123.606"
       y2="87.152"
       gradientTransform="translate(-52,0)"
       gradientUnits="userSpaceOnUse"
       class="svga-on-canvas-eyesiris-gradient-left-5">
      <stop
         id="SvgjsStop18071"
         stop-opacity="1"
         stop-color="#ffffff"
         offset="0" />
      <stop
         id="SvgjsStop18072"
         stop-opacity="0"
         stop-color="#ffffff"
         offset="1" />
    </linearGradient>
    <linearGradient
       id="SvgjsLinearGradient18074"
       x1="127.212"
       y1="82.295998"
       x2="126.463"
       y2="83.189003"
       gradientTransform="translate(-52,0)"
       gradientUnits="userSpaceOnUse"
       class="svga-on-canvas-eyesiris-gradient-left-6">
      <stop
         id="SvgjsStop18075"
         stop-opacity="1"
         stop-color="#ffffff"
         offset="0" />
      <stop
         id="SvgjsStop18076"
         stop-opacity="0"
         stop-color="#ffffff"
         offset="1" />
    </linearGradient>
    <linearGradient
       id="SvgjsLinearGradient18078"
       x1="129.636"
       y1="79.821999"
       x2="127.91"
       y2="81.878998"
       gradientTransform="translate(-52,0)"
       gradientUnits="userSpaceOnUse"
       class="svga-on-canvas-eyesiris-gradient-left-7">
      <stop
         id="SvgjsStop18079"
         stop-opacity="1"
         stop-color="#ffffff"
         offset="0" />
      <stop
         id="SvgjsStop18080"
         stop-opacity="0"
         stop-color="#ffffff"
         offset="1" />
    </linearGradient>
    <radialGradient
       id="SvgjsRadialGradient18083"
       cx="-568.65399"
       cy="-521.04199"
       r="59.751999"
       gradientTransform="matrix(0.096,-0.0248,0.0245,0.0961,193.2804,119.9894)"
       gradientUnits="userSpaceOnUse"
       class="svga-on-canvas-eyesiris-gradient-right-1">
      <stop
         id="SvgjsStop18084"
         stop-opacity="1"
         stop-color="#ffffff"
         offset="0" />
      <stop
         id="SvgjsStop18085"
         stop-opacity="0"
         stop-color="#ffffff"
         offset="1" />
    </radialGradient>
    <radialGradient
       id="SvgjsRadialGradient18087"
       cx="-582.83301"
       cy="-519.10199"
       r="59.747002"
       gradientTransform="matrix(0.0991,8.856319e-4,-0.0011,0.0991,183.1126,135.9856)"
       gradientUnits="userSpaceOnUse"
       class="svga-on-canvas-eyesiris-gradient-right-2">
      <stop
         id="SvgjsStop18088"
         stop-opacity="1"
         stop-color="#ffffff"
         offset="0" />
      <stop
         id="SvgjsStop18089"
         stop-opacity="0"
         stop-color="#ffffff"
         offset="1" />
    </radialGradient>
    <linearGradient
       id="SvgjsLinearGradient18093"
       x1="122.67"
       y1="88.267998"
       x2="123.606"
       y2="87.152"
       gradientUnits="userSpaceOnUse"
       class="svga-on-canvas-eyesiris-gradient-right-5">
      <stop
         id="SvgjsStop18094"
         stop-opacity="1"
         stop-color="#ffffff"
         offset="0" />
      <stop
         id="SvgjsStop18095"
         stop-opacity="0"
         stop-color="#ffffff"
         offset="1" />
    </linearGradient>
    <linearGradient
       id="SvgjsLinearGradient18097"
       x1="127.212"
       y1="82.295998"
       x2="126.463"
       y2="83.189003"
       gradientUnits="userSpaceOnUse"
       class="svga-on-canvas-eyesiris-gradient-right-6">
      <stop
         id="SvgjsStop18098"
         stop-opacity="1"
         stop-color="#ffffff"
         offset="0" />
      <stop
         id="SvgjsStop18099"
         stop-opacity="0"
         stop-color="#ffffff"
         offset="1" />
    </linearGradient>
    <linearGradient
       id="SvgjsLinearGradient18101"
       x1="129.636"
       y1="79.821999"
       x2="127.91"
       y2="81.878998"
       gradientUnits="userSpaceOnUse"
       class="svga-on-canvas-eyesiris-gradient-right-7">
      <stop
         id="SvgjsStop18102"
         stop-opacity="1"
         stop-color="#ffffff"
         offset="0" />
      <stop
         id="SvgjsStop18103"
         stop-opacity="0"
         stop-color="#ffffff"
         offset="1" />
    </linearGradient>
    <linearGradient
       id="SvgjsLinearGradient20393"
       x1="100"
       y1="144"
       x2="100"
       y2="141"
       gradientUnits="userSpaceOnUse"
       class="svga-on-canvas-mouth-gradient-single-0">
      <stop
         id="SvgjsStop20394"
         stop-opacity="1"
         stop-color="#e4b5a7"
         offset="0.1" />
      <stop
         id="SvgjsStop20395"
         stop-opacity="1"
         stop-color="#dda696"
         offset="1" />
    </linearGradient>
    <linearGradient
       id="SvgjsLinearGradient20526"
       x1="130"
       y1="69"
       x2="130"
       y2="109"
       gradientUnits="userSpaceOnUse"
       class="svga-on-canvas-glasses-gradient-single-0">
      <stop
         id="SvgjsStop20527"
         stop-opacity="1"
         stop-color="#000000"
         offset="0" />
      <stop
         id="SvgjsStop20528"
         stop-opacity="0.8"
         stop-color="#000000"
         offset="1" />
    </linearGradient>
    <linearGradient
       id="SvgjsLinearGradient20530"
       x1="130"
       y1="69"
       x2="130"
       y2="109"
       gradientTransform="matrix(-1,0,0,1,200,0)"
       gradientUnits="userSpaceOnUse"
       class="svga-on-canvas-glasses-gradient-single-1">
      <stop
         id="SvgjsStop20531"
         stop-opacity="1"
         stop-color="#000000"
         offset="0" />
      <stop
         id="SvgjsStop20532"
         stop-opacity="0.8"
         stop-color="#000000"
         offset="1" />
    </linearGradient>
    <linearGradient
       id="SvgjsLinearGradient20694"
       x1="100"
       y1="171"
       x2="100"
       y2="128"
       gradientUnits="userSpaceOnUse"
       class="svga-on-canvas-chinshadow-gradient-single-0">
      <stop
         id="SvgjsStop20695"
         stop-opacity="0.8"
         stop-color="#dda696"
         offset="0" />
      <stop
         id="SvgjsStop20696"
         stop-opacity="1"
         stop-color="#be725b"
         offset="0.7" />
    </linearGradient>
    <radialGradient
       id="SvgjsRadialGradient20754"
       cx="126.289"
       cy="84.918999"
       r="10.712"
       gradientTransform="matrix(-1,0,0,1,200,0)"
       gradientUnits="userSpaceOnUse"
       class="svga-on-canvas-eyesback-gradient-left-0">
      <stop
         id="SvgjsStop20755"
         stop-opacity="1"
         stop-color="#ffffff"
         offset="0" />
      <stop
         id="SvgjsStop20756"
         stop-opacity="1"
         stop-color="#fdfefe"
         offset="0.544" />
      <stop
         id="SvgjsStop20757"
         stop-opacity="1"
         stop-color="#f6f8f9"
         offset="0.74" />
      <stop
         id="SvgjsStop20758"
         stop-opacity="1"
         stop-color="#eaeff2"
         offset="0.879" />
      <stop
         id="SvgjsStop20759"
         stop-opacity="1"
         stop-color="#d9e3e8"
         offset="0.992" />
      <stop
         id="SvgjsStop20760"
         stop-opacity="1"
         stop-color="#d8e2e7"
         offset="1" />
    </radialGradient>
    <radialGradient
       id="SvgjsRadialGradient20762"
       cx="125.89"
       cy="84.918999"
       r="10.712"
       gradientUnits="userSpaceOnUse"
       class="svga-on-canvas-eyesback-gradient-right-0">
      <stop
         id="SvgjsStop20763"
         stop-opacity="1"
         stop-color="#ffffff"
         offset="0" />
      <stop
         id="SvgjsStop20764"
         stop-opacity="1"
         stop-color="#fdfefe"
         offset="0.544" />
      <stop
         id="SvgjsStop20765"
         stop-opacity="1"
         stop-color="#f6f8f9"
         offset="0.74" />
      <stop
         id="SvgjsStop20766"
         stop-opacity="1"
         stop-color="#eaeff2"
         offset="0.879" />
      <stop
         id="SvgjsStop20767"
         stop-opacity="1"
         stop-color="#d9e3e8"
         offset="0.992" />
      <stop
         id="SvgjsStop20768"
         stop-opacity="1"
         stop-color="#d8e2e7"
         offset="1" />
    </radialGradient>
    <radialGradient
       id="SvgjsRadialGradient20770"
       cx="126.289"
       cy="84.918999"
       r="10.712"
       gradientTransform="matrix(-1,0,0,1,200,0)"
       class="svga-on-canvas-eyesfront-gradient-left-0">
      <stop
         id="SvgjsStop20771"
         stop-opacity="1"
         stop-color="#ffffff"
         offset="0" />
      <stop
         id="SvgjsStop20772"
         stop-opacity="1"
         stop-color="#fdfefe"
         offset="0.544" />
      <stop
         id="SvgjsStop20773"
         stop-opacity="1"
         stop-color="#f6f8f9"
         offset="0.74" />
      <stop
         id="SvgjsStop20774"
         stop-opacity="1"
         stop-color="#eaeff2"
         offset="0.879" />
      <stop
         id="SvgjsStop20775"
         stop-opacity="1"
         stop-color="#d9e3e8"
         offset="0.992" />
      <stop
         id="SvgjsStop20776"
         stop-opacity="1"
         stop-color="#d8e2e7"
         offset="1" />
    </radialGradient>
    <radialGradient
       id="SvgjsRadialGradient20780"
       cx="123.715"
       cy="85.488998"
       fx="135.43401"
       fy="85.522003"
       r="16.667"
       gradientTransform="matrix(0.9998,0.0208,0.0166,-0.7998,-48.826,151.2907)"
       gradientUnits="userSpaceOnUse"
       class="svga-on-canvas-eyesfront-gradient-left-3">
      <stop
         id="SvgjsStop20781"
         stop-opacity="1"
         stop-color="#dda696"
         offset="0" />
      <stop
         id="SvgjsStop20782"
         stop-opacity="0.3"
         stop-color="#dda696"
         offset="0.7" />
      <stop
         id="SvgjsStop20783"
         stop-opacity="0"
         stop-color="#ecc4b8"
         offset="1" />
    </radialGradient>
    <radialGradient
       id="SvgjsRadialGradient20785"
       cx="122.874"
       cy="101.325"
       r="26.878"
       gradientTransform="matrix(-1,0,0,0.7923,200,21.0491)"
       gradientUnits="userSpaceOnUse"
       class="svga-on-canvas-eyesfront-gradient-left-4">
      <stop
         id="SvgjsStop20786"
         stop-opacity="0"
         stop-color="#000000"
         offset="0.95" />
      <stop
         id="SvgjsStop20787"
         stop-opacity="0.2"
         stop-color="#000000"
         offset="1" />
    </radialGradient>
    <radialGradient
       id="SvgjsRadialGradient20791"
       cx="125.89"
       cy="84.918999"
       r="10.712"
       gradientUnits="userSpaceOnUse"
       class="svga-on-canvas-eyesfront-gradient-right-0">
      <stop
         id="SvgjsStop20792"
         stop-opacity="1"
         stop-color="#ffffff"
         offset="0" />
      <stop
         id="SvgjsStop20793"
         stop-opacity="1"
         stop-color="#fdfefe"
         offset="0.544" />
      <stop
         id="SvgjsStop20794"
         stop-opacity="1"
         stop-color="#f6f8f9"
         offset="0.74" />
      <stop
         id="SvgjsStop20795"
         stop-opacity="1"
         stop-color="#eaeff2"
         offset="0.879" />
      <stop
         id="SvgjsStop20796"
         stop-opacity="1"
         stop-color="#d9e3e8"
         offset="0.992" />
      <stop
         id="SvgjsStop20797"
         stop-opacity="1"
         stop-color="#d8e2e7"
         offset="1" />
    </radialGradient>
    <radialGradient
       id="SvgjsRadialGradient20801"
       cx="123.315"
       cy="85.488998"
       fx="135.034"
       fy="85.522003"
       r="16.667"
       gradientTransform="matrix(-0.9998,0.0208,-0.0166,-0.7998,248.0273,151.299)"
       gradientUnits="userSpaceOnUse"
       class="svga-on-canvas-eyesfront-gradient-right-3">
      <stop
         id="SvgjsStop20802"
         stop-opacity="1"
         stop-color="#dda696"
         offset="0" />
      <stop
         id="SvgjsStop20803"
         stop-opacity="0.3"
         stop-color="#dda696"
         offset="0.7" />
      <stop
         id="SvgjsStop20804"
         stop-opacity="0"
         stop-color="#ecc4b8"
         offset="1" />
    </radialGradient>
    <radialGradient
       id="SvgjsRadialGradient20806"
       cx="122.475"
       cy="101.325"
       r="26.878"
       gradientTransform="matrix(1,0,0,0.7923,0,21.0491)"
       gradientUnits="userSpaceOnUse"
       class="svga-on-canvas-eyesfront-gradient-right-4">
      <stop
         id="SvgjsStop20807"
         stop-opacity="0"
         stop-color="#000000"
         offset="0.95" />
      <stop
         id="SvgjsStop20808"
         stop-opacity="0.2"
         stop-color="#000000"
         offset="1" />
    </radialGradient>
    <radialGradient
       id="SvgjsRadialGradient20828"
       cx="100"
       cy="100"
       r="150"
       gradientUnits="userSpaceOnUse"
       class="svga-on-canvas-backs-gradient-single-1">
      <stop
         id="SvgjsStop20829"
         stop-opacity="0"
         stop-color="#c5e0dc"
         offset="0" />
      <stop
         id="SvgjsStop20830"
         stop-opacity="1"
         stop-color="#a3d1ca"
         offset="0.2" />
      <stop
         id="SvgjsStop20831"
         stop-opacity="0"
         stop-color="#a3d1ca"
         offset="1" />
    </radialGradient>
  </defs>
</svg>
